<svg width="100" height="100" viewBox="0 0 100 100" xmlns="http://www.w3.org/2000/svg">
  <g fill="#333" stroke="#000" stroke-width="0.5">
    <!-- Abdomen -->
    <ellipse cx="50" cy="65" rx="12" ry="18" fill="#1a1a1a" />
    <!-- Thorax -->
    <ellipse cx="50" cy="42" rx="10" ry="12" fill="#222" />
    <!-- Head -->
    <circle cx="50" cy="28" r="7" fill="#111" />
    <!-- Eyes -->
    <circle cx="45" cy="26" r="3" fill="#600" />
    <circle cx="55" cy="26" r="3" fill="#600" />
    
    <!-- Wings - Semi-transparent -->
    <g opacity="0.4" fill="#ddd" stroke="#999">
      <path d="M42 40 C 20 20, 5 30, 15 60 C 25 90, 45 70, 42 40 Z" />
      <path d="M58 40 C 80 20, 95 30, 85 60 C 75 90, 55 70, 58 40 Z" />
    </g>
    
    <!-- Legs -->
    <g fill="none" stroke="#222" stroke-width="1.5" stroke-linecap="round">
      <path d="M40 38 L 25 30 M60 38 L 75 30" />
      <path d="M40 45 L 20 45 M60 45 L 80 45" />
      <path d="M42 55 L 25 70 M58 55 L 75 70" />
    </g>
  </g>
</svg>
