<svg width="32" height="32" viewBox="0 0 32 32" xmlns="http://www.w3.org/2000/svg">
  <!-- Handle -->
  <rect x="15" y="12" width="2" height="18" fill="#555" />
  <!-- Mesh Base (Orange) -->
  <rect x="8" y="2" width="16" height="12" rx="1" fill="#FF8C00" stroke="#E67E22" stroke-width="1" />
  <!-- Grid lines (Mesh look) -->
  <g stroke="#D35400" stroke-width="0.3">
    <line x1="9" y1="2" x2="9" y2="14" />
    <line x1="10" y1="2" x2="10" y2="14" />
    <line x1="11" y1="2" x2="11" y2="14" />
    <line x1="12" y1="2" x2="12" y2="14" />
    <line x1="13" y1="2" x2="13" y2="14" />
    <line x1="14" y1="2" x2="14" y2="14" />
    <line x1="15" y1="2" x2="15" y2="14" />
    <line x1="16" y1="2" x2="16" y2="14" />
    <line x1="17" y1="2" x2="17" y2="14" />
    <line x1="18" y1="2" x2="18" y2="14" />
    <line x1="19" y1="2" x2="19" y2="14" />
    <line x1="20" y1="2" x2="20" y2="14" />
    <line x1="21" y1="2" x2="21" y2="14" />
    <line x1="22" y1="2" x2="22" y2="14" />
    <line x1="23" y1="2" x2="23" y2="14" />
    
    <line x1="8" y1="3" x2="24" y2="3" />
    <line x1="8" y1="4" x2="24" y2="4" />
    <line x1="8" y1="5" x2="24" y2="5" />
    <line x1="8" y1="6" x2="24" y2="6" />
    <line x1="8" y1="7" x2="24" y2="7" />
    <line x1="8" y1="8" x2="24" y2="8" />
    <line x1="8" y1="9" x2="24" y2="9" />
    <line x1="8" y1="10" x2="24" y2="10" />
    <line x1="8" y1="11" x2="24" y2="11" />
    <line x1="8" y1="13" x2="24" y2="13" />
  </g>
</svg>
